<?xml version="1.0" encoding="utf-8"?>
<!-- Generator: Adobe Illustrator 19.0.0, SVG Export Plug-In . SVG Version: 6.00 Build 0)  -->
<svg version="1.1" id="Layer_1" xmlns="http://www.w3.org/2000/svg" xmlns:xlink="http://www.w3.org/1999/xlink" x="0px" y="0px"
	 viewBox="0 0 408.9 453.4" style="enable-background:new 0 0 408.9 453.4;" xml:space="preserve">
<style type="text/css">
	.st0{fill:#D71F2B;}
</style>
<g id="XMLID_160_">
	<g id="XMLID_205_">
		<path id="XMLID_207_" class="st0" d="M335.9,33.6l10.2-3.3c0,0,5.5-2.1,7.9-2.5s10.2-0.9,12.8-1c2.6-0.2,7.1-0.1,10-0.6
			c1.9-0.3,14.8-5.2,15.9-5.7c1.1-0.5,16.2-8,16.2-8s-18.6,7.3-19.8,7.6c-1.1,0.3-11.2,3.6-12.3,3.7c-1.1,0.1-15.9,0.4-17,0.4
			c-1.1,0-6.5,0.4-8.5,1c-2,0.6-17.3,5.2-17.3,5.2L335.9,33.6z"/>
		<path id="XMLID_206_" class="st0" d="M336,33.2l10.4,7c0,0,8.4,5.6,9.6,6c1.2,0.3,5.7,2.2,9.8,3.3c4.1,1.1,10.8,4.3,12.7,5.5
			c1.9,1.2,11.9,9.2,13.3,10.1c1.4,0.9,10.6,9.9,10.6,9.9S389.7,64.7,386,62.5c-3.7-2.2-8.6-5.7-9.7-6.2c-1-0.4-4.9-2.2-8.2-3.3
			c-3.4-1.1-11.2-2.8-12.5-3.6c-1.3-0.8-10.1-5.6-12.2-7c-1.8-1.2-9.7-6.6-9.7-6.6L336,33.2z"/>
	</g>
	<g id="XMLID_202_">
		<path id="XMLID_204_" class="st0" d="M44.5,418.5l-2.7,3.2l-7.2-4.7c0,0-3.3-1.5-5.6-1.9c-2.3-0.4-8.3-1.7-9.3-2.4
			c-1-0.7-8.3-5.5-9.6-6.8c-1.3-1.3-9.9-9.6-9.9-9.6s9.9,7.4,11.2,8.2c1.3,0.8,4.8,2.8,6.7,4.2c2.1,1.6,7.4,2.7,11.1,3
			c5.1,0.3,10.8,4.4,12.9,5.4C43.3,417.7,44.5,418.5,44.5,418.5z"/>
		<path id="XMLID_203_" class="st0" d="M42.2,422.3l2.3,3.4c0,0-6,3.3-7,3.9c-2.4,1.4-4.9,1.7-9.8,2.5c-4.9,0.8-10.2,3.7-11.8,4.8
			c-1.6,1.1-5.8,3.4-7.4,4.5C7,442.5,1.5,447,1.5,447s9.6-9.6,12.4-11.4c2.6-1.7,5.1-4.2,9.2-5.4c3.8-1.1,8.1-1.6,9.8-2.1
			C34.5,427.6,42.2,422.3,42.2,422.3z"/>
	</g>
	<g id="XMLID_199_">
		<path id="XMLID_201_" class="st0" d="M308.4,27.4c0,0,0.6-7.6,1.1-10.7c0.5-2.6,3.3-10,6.3-13.8c0,0-6.4,5.9-8.2,13.5
			c-1,4-2.1,10.9-2.1,10.9L308.4,27.4z"/>
		<path id="XMLID_200_" class="st0" d="M308,30.9c0,0,0.5,7.1,0.9,10.3c0.3,2.6,2.4,10.4,5.2,14.4c0,0-5.9-6.3-7.3-14
			c-0.7-4.1-1.4-11-1.4-11L308,30.9z"/>
	</g>
	<g id="XMLID_197_">
		<path id="XMLID_198_" class="st0" d="M52.6,426.3c-2.5,0-5,0-7.5-0.1c-2.2-0.1-3.9-1.9-3.9-4.1c0.1-2.2,1.9-3.9,4.1-3.9
			c55.8,1.6,97.7-14.5,128.4-49.2c37.8-42.8,32.9-88.8,7.5-175.5C151,90.3,224.7,45.9,248,34.7c40.2-19.2,85.4-6.3,87.3-5.7
			c2.1,0.6,3.3,2.8,2.7,5c-0.6,2.1-2.8,3.3-5,2.7l0,0c-0.4-0.1-44.2-12.6-81.6,5.3c-21.9,10.5-91.1,52.1-62.6,149.3
			c12.1,41.4,20.2,75,20.3,104c0,31.2-9.3,56.3-29.4,79.1c-16.6,18.8-37,32.7-60.5,41.3C99.5,422.7,77.2,426.3,52.6,426.3z"/>
	</g>
	<g id="XMLID_194_">
		<path id="XMLID_196_" class="st0" d="M269.1,29.8c0,0-1.5-8.7-1.7-12.4c-0.2-3,0.9-12.2,3.3-17.4c0,0-5.5,8.4-5.5,17.5
			c0,4.8,0.7,12.9,0.7,12.9L269.1,29.8z"/>
		<path id="XMLID_195_" class="st0" d="M269.6,33.9c0,0,2.6,7.9,3.9,11.3c1.1,2.9,5.6,11,9.9,14.8c0,0-8.5-5.4-12.2-13.7
			c-1.9-4.4-4.7-12-4.7-12L269.6,33.9z"/>
	</g>
	<g id="XMLID_191_">
		<path id="XMLID_193_" class="st0" d="M230.9,46.9c0,0-5.7-7.6-7.7-11c-1.7-2.8-5.1-12.1-5.4-18.2c0,0-1.1,10.8,3.3,19.4
			c2.4,4.6,6.9,12,6.9,12L230.9,46.9z"/>
		<path id="XMLID_192_" class="st0" d="M233.3,50.6c0,0,6.3,6.3,9.2,9c2.4,2.2,10.8,7.8,16.7,9.3c0,0-10.8-1.1-18.3-7.2
			c-4-3.2-10.3-9.2-10.3-9.2L233.3,50.6z"/>
	</g>
	<g id="XMLID_188_">
		<path id="XMLID_190_" class="st0" d="M199.6,75.7c0,0-7.6-5.7-10.5-8.4c-2.4-2.2-8.3-10.2-10.3-16c0,0,1.9,10.6,8.7,17.7
			c3.6,3.7,10,9.6,10,9.6L199.6,75.7z"/>
		<path id="XMLID_189_" class="st0" d="M203,78.6c0,0,7.8,4.2,11.4,6c2.9,1.4,12.5,4.4,18.7,4.2c0,0-10.6,2-19.6-1.7
			c-4.8-2-12.5-5.9-12.5-5.9L203,78.6z"/>
	</g>
	<g id="XMLID_185_">
		<path id="XMLID_187_" class="st0" d="M179.3,115c0,0-9.3-1.5-13.2-2.5c-3.2-0.8-12.1-5.1-16.6-9.3c0,0,6.7,8.5,15.9,11.6
			c4.9,1.6,13.3,3.7,13.3,3.7L179.3,115z"/>
		<path id="XMLID_186_" class="st0" d="M183.6,116c0,0,8.9,0.1,12.9,0c3.3-0.1,13.1-1.9,18.5-5c0,0-8.4,6.8-18.1,7.7
			c-5.1,0.5-13.8,0.6-13.8,0.6L183.6,116z"/>
	</g>
	<g id="XMLID_182_">
		<path id="XMLID_184_" class="st0" d="M176.5,159.5c0,0-9.4,1.1-13.3,1.1c-3.3,0-13-1.7-18.5-4.5c0,0,8.7,6.4,18.4,6.9
			c5.1,0.3,13.8,0,13.8,0L176.5,159.5z"/>
		<path id="XMLID_183_" class="st0" d="M180.9,159.2c0,0,8.6-2.3,12.4-3.5c3.1-1,12.1-5.4,16.4-9.8c0,0-6.3,8.8-15.4,12.2
			c-4.8,1.8-13.2,4.3-13.2,4.3L180.9,159.2z"/>
	</g>
	<g id="XMLID_179_">
		<path id="XMLID_181_" class="st0" d="M185,202c0,0-9.1,2.7-12.9,3.5c-3.2,0.6-13.1,0.6-19-1.2c0,0,9.7,4.8,19.4,3.5
			c5.1-0.7,13.6-2.4,13.6-2.4L185,202z"/>
		<path id="XMLID_180_" class="st0" d="M189.3,200.9c0,0,8.1-3.8,11.6-5.6c2.9-1.5,11-7.4,14.5-12.5c0,0-4.7,9.8-13,14.8
			c-4.4,2.6-12.2,6.6-12.2,6.6L189.3,200.9z"/>
	</g>
	<g id="XMLID_176_">
		<path id="XMLID_178_" class="st0" d="M195.5,239.6c0,0-9.3,1.9-13.2,2.3c-3.3,0.3-13.1-0.5-18.8-2.8c0,0,9.3,5.6,19,5.2
			c5.1-0.2,13.8-1.2,13.8-1.2L195.5,239.6z"/>
		<path id="XMLID_177_" class="st0" d="M199.9,238.9c0,0,8.4-3.1,12-4.6c3-1.2,11.6-6.5,15.5-11.2c0,0-5.5,9.3-14.3,13.6
			c-4.6,2.3-12.7,5.5-12.7,5.5L199.9,238.9z"/>
	</g>
	<g id="XMLID_173_">
		<path id="XMLID_175_" class="st0" d="M202.6,289.7c0,0-9.4,0.6-13.4,0.5c-3.3-0.1-12.9-2.3-18.2-5.4c0,0,8.4,6.8,18.1,7.8
			c5.1,0.5,13.8,0.7,13.8,0.7L202.6,289.7z"/>
		<path id="XMLID_174_" class="st0" d="M207,289.7c0,0,8.7-1.9,12.5-2.8c3.2-0.8,12.4-4.8,16.9-8.9c0,0-6.8,8.4-16,11.4
			c-4.9,1.6-13.4,3.6-13.4,3.6L207,289.7z"/>
	</g>
	<g id="XMLID_170_">
		<path id="XMLID_172_" class="st0" d="M192.5,344.5c0,0-8.9-3.1-12.5-4.7c-3-1.4-11-7.1-14.7-12c0,0,5.1,9.5,13.7,14.2
			c4.5,2.4,12.5,6,12.5,6L192.5,344.5z"/>
		<path id="XMLID_171_" class="st0" d="M196.6,346.1c0,0,8.8,1.6,12.7,2.2c3.2,0.5,13.3,0.4,19.1-1.7c0,0-9.5,5.2-19.2,4.4
			c-5.1-0.4-13.7-1.8-13.7-1.8L196.6,346.1z"/>
	</g>
	<g id="XMLID_167_">
		<path id="XMLID_169_" class="st0" d="M154.2,389.6c0,0-6.5-6.8-9-10c-2-2.6-6.5-11.4-7.6-17.4c0,0,0.2,10.8,5.6,18.9
			c2.9,4.3,8.3,11.1,8.3,11.1L154.2,389.6z"/>
		<path id="XMLID_168_" class="st0" d="M157.1,393c0,0,7,5.5,10.2,7.8c2.7,1.9,11.6,6.4,17.7,7.2c0,0-10.8,0.3-19.1-4.9
			c-4.4-2.7-11.4-7.9-11.4-7.9L157.1,393z"/>
	</g>
	<g id="XMLID_164_">
		<path id="XMLID_166_" class="st0" d="M112.4,412c0,0-3.4-8.8-4.4-12.7c-0.9-3.2-1.6-13-0.2-19c0,0-4,10-2.1,19.6
			c1,5,3.4,13.4,3.4,13.4L112.4,412z"/>
		<path id="XMLID_165_" class="st0" d="M113.8,416.2c0,0,4.4,7.8,6.4,11.1c1.7,2.8,8.2,10.4,13.5,13.5c0,0-10.1-4-15.7-11.9
			c-3-4.2-7.4-11.7-7.4-11.7L113.8,416.2z"/>
	</g>
	<g id="XMLID_161_">
		<path id="XMLID_163_" class="st0" d="M63.5,419.9c0,0-1-9.4-1-13.4c0-3.3,1.9-13,4.8-18.4c0,0-6.5,8.6-7.1,18.3
			c-0.3,5.1-0.2,13.8-0.2,13.8L63.5,419.9z"/>
		<path id="XMLID_162_" class="st0" d="M63.7,424.4c0,0,2.2,8.6,3.3,12.4c0.9,3.1,5.2,12.2,9.5,16.6c0,0-8.7-6.4-12-15.6
			c-1.8-4.8-4.1-13.2-4.1-13.2L63.7,424.4z"/>
	</g>
</g>
</svg>
